<svg xmlns="http://www.w3.org/2000/svg" width="512" height="512" viewBox="0 0 512 512"><g id="Grupo_1846" data-name="Grupo 1846" transform="translate(11973 17748)"><rect id="Rect&#xE1;ngulo_1390" data-name="Rect&#xE1;ngulo 1390" width="512" height="512" transform="translate(-11973 -17748)" fill="none"></rect><g id="Grupo_1845" data-name="Grupo 1845" transform="translate(-274 -215.001)"><path id="Trazado_137" data-name="Trazado 137" d="M656.138,125.575a256.188,256.188,0,0,0-24.582-10.216C603.3,105.029,544.665,87.7,469.356,87.7s-133.948,17.325-162.2,27.654a256.9,256.9,0,0,0-24.586,10.216l-10.611,5.281.016,282.316c1.2,30.414,15.488,55.859,43.679,77.788,36.135,28.1,153.7,108.745,153.7,108.745s117.566-80.644,153.7-108.745c28.188-21.929,42.478-47.374,43.675-77.774l.017-282.329Z" transform="translate(-11911.956 -17620.701)" fill="#0a2240"></path><path id="Trazado_138" data-name="Trazado 138" d="M300.418,119.958a239.967,239.967,0,0,0-22.692,9.4V285.889c3.95-1.778,10.512-4.574,19.408-7.825,27.485-10.051,84.624-26.914,158.853-27.133V93.408c-70.679.212-126.594,15.955-155.569,26.549" transform="translate(-11898.586 -17607.475)" fill="#ff2427"></path><path id="Trazado_139" data-name="Trazado 139" d="M487.032,119.958c-29.044-10.618-84.647-26.41-155.565-26.549V250.93c78.75.143,131.308,17.059,158.853,27.133,8.893,3.251,15.454,6.047,19.4,7.825V129.358a239.483,239.483,0,0,0-22.692-9.4" transform="translate(-11774.065 -17607.475)" fill="#fff"></path><path id="Trazado_140" data-name="Trazado 140" d="M364.745,138.311a.363.363,0,0,0,.5.332c7.089-3.247,13.132-10.323,12.489-19.342-.73-10.309-13.033-11.019-8.479-19.206a.364.364,0,0,0-.5-.494c-5.019,3.271-9.311,9.391-5.7,22.357a.362.362,0,0,1-.594.368c-3.287-3.075-4.461-8.094-4.378-11.1a.36.36,0,0,0-.637-.249,15.943,15.943,0,0,0-2.846,9.656c.916,7.473,9.865,8.843,10.144,17.673" transform="translate(-11720.582 -17593.262)" fill="#ff2427"></path><path id="Trazado_141" data-name="Trazado 141" d="M364.763,172.965c3.675.255,6.946.61,9.891,1.088a.358.358,0,0,0,.3-.617c-15.742-15.335-21.182-23.514-21.212-36.185.169-7.324,7.059-15.481,16.091-15.481,5.626,0,11.6,3.148,17.288,9.105l7.789,8.157a1.2,1.2,0,0,0,1.731,0l7.789-8.157c5.685-5.957,11.663-9.105,17.288-9.105a14.99,14.99,0,0,1,5.987,1.264l8.578-8.976c-10.521-6.617-25.713-6.624-40.076,8.11a.6.6,0,0,1-.859,0c-25.326-25.976-53.232-6.15-53.567,14.976,0,13.865,5.184,23.836,15.646,35.456q3.94.129,7.34.365" transform="translate(-11750.185 -17569.479)" fill="#ff2427"></path><path id="Trazado_142" data-name="Trazado 142" d="M385.242,125.718c-1.46,9.915-7.384,17.8-20.831,30.9a.356.356,0,0,0,.292.614c2.945-.474,6.216-.829,9.891-1.085q3.4-.239,7.341-.365c10.462-11.62,15.646-21.594,15.646-35.456a24.417,24.417,0,0,0-.272-3.261Z" transform="translate(-11697.998 -17552.666)" fill="#ff2427"></path><path id="Trazado_143" data-name="Trazado 143" d="M440.851,130.745c-6.71.013-12.3.182-17.013.514-13.066.909-19.428,3.045-24.171,6.408a48.593,48.593,0,0,0-6.876,6.319.6.6,0,0,1-.873,0,48.409,48.409,0,0,0-6.876-6.319c-4.743-3.363-11.105-5.5-24.168-6.408-4.72-.332-10.306-.5-17.016-.514a.611.611,0,0,0-.607.6v10.717a.605.605,0,0,0,.607.6c21.856.027,28.659,1.546,32.938,3.675,4.16,2.07,11.994,11.258,14.651,14.459a1.176,1.176,0,0,0,1.814,0c2.657-3.2,10.5-12.389,14.651-14.459,4.279-2.129,11.082-3.649,32.941-3.675a.6.6,0,0,0,.6-.6V131.349a.609.609,0,0,0-.607-.6" transform="translate(-11746.764 -17520.967)" fill="#ff2427"></path><path id="Trazado_144" data-name="Trazado 144" d="M362.472,153.773l40.053-28.709a3.582,3.582,0,0,0,1.5-2.916v-10.6a1.2,1.2,0,0,0-2.063-.829l-40.269,42.156a.6.6,0,0,0,.78.9" transform="translate(-11704.438 -17568.234)" fill="#ff2427"></path><path id="Trazado_145" data-name="Trazado 145" d="M298.524,181.341a45.113,45.113,0,0,0,15.713,2.8q13.509,0,20.834-6.223a20.412,20.412,0,0,0,7.33-16.353q0-18.668-22.576-21.727l-3.791-.527q-6.02-.846-8.6-2.8a6.118,6.118,0,0,1-2.581-5.115,7.117,7.117,0,0,1,2.478-5.642c1.648-1.443,4.027-2.163,7.118-2.163q8.234,0,16.668,5.483a.994.994,0,0,0,1.476-.315l6.435-9.6a.957.957,0,0,0-.212-1.582q-9.7-7.488-24.367-7.49-11.6,0-18.512,6.014t-6.909,15.928q0,18.355,22.678,21.518l3.8.527q6.115.846,8.594,2.743a6.254,6.254,0,0,1,2.478,5.271,7.371,7.371,0,0,1-3.108,6.226q-3.115,2.319-8.6,2.319-9.493,0-18.778-7.384-.95-.736-1.579.106l-8.017,9.178a1.216,1.216,0,0,0,.1,1.791,33.294,33.294,0,0,0,11.921,7.016" transform="translate(-11879.056 -17568.826)" fill="#fff"></path><path id="Trazado_146" data-name="Trazado 146" d="M368.427,181.111l-24.261-69.618a1.327,1.327,0,0,0-1.373-1.055H329.5a1.324,1.324,0,0,0-1.37,1.055L303.45,181.111q-.318,1.055.736,1.055H318a1.327,1.327,0,0,0,1.373-1.055l4.007-12.552h25.107l4.113,12.552a1.321,1.321,0,0,0,1.37,1.055h13.713c.7,0,.952-.352.74-1.055M327.71,155.374l8.123-25.1h.315l8.123,25.1Z" transform="translate(-11839.158 -17568.023)" fill="#fff"></path><path id="Trazado_147" data-name="Trazado 147" d="M527.937,292.935,628.529,287.4a73.8,73.8,0,0,0,5.688-25.846V235.786l-63.259,9.868a1.329,1.329,0,0,1-.591-2.584l63.853-19.113,0-55.2L629.965,167a229.412,229.412,0,0,0-21.71-8.979c-4.219-1.542-9.175-3.254-14.8-5.042-2.64,32.991-16.233,62.287-39.585,85.032-19.458,18.953-45.374,32.981-71.1,38.478-17.54,3.748-40.786,4.445-60.665,1.821-22.838-3.018-38.166-10.007-43.35-19.736-4.886,4.584-7.341,9.629-7.294,15.006.089,10.528,9.772,18.96,9.871,19.043l3.121,2.68-3.844-1.463c-.776-.3-18.993-7.394-19.027-21.08-.04-15.564,23.362-32.517,69.558-50.389,8.76-3.383,19.9-.1,24.652,5.191-.332-24.589-6.282-40.372-17.693-46.923-15.271-8.767-35.545,2.216-37.207,3.148-3.838,4.71-10.6,20.353-12.681,42.826l-.056.607-.607.043c-.879.083-1-.627-1.625-3.931-.63-3.324-1.808-9.5-3.526-10.508a.638.638,0,0,0-.571-.066l-1.1.378a21.089,21.089,0,0,1-12.11,1.081c-3.314-.454-5.291-3.012-7.032-5.271a13.66,13.66,0,0,0-3.4-3.519c-5.145-3.058-11.4,1.383-11.467,1.426l-4.077,2.945,3.088-3.967c.245-.315,6.09-7.709,13.368-6.209,18.987,3.881,26.735,3.526,29.628-1.347.179-.375,5-11.308,6.156-13.938-.073-.053-.149-.109-.226-.169-1.6-1.171-5.848-4.289-21.491-4.289-64.583,0-89.964,51.241-95.431,65.1L305.925,230.6l-27.939,34.553,24.795-7.394-21.156,24.874c5.264,15.451,15.862,29.12,32.4,41.98C342.9,347.072,426.1,404.652,455.974,425.238c7.855-5.413,19.414-13.394,32.686-22.612l-32.162-25.1a1.33,1.33,0,0,1,1.34-2.272l43.447,18.589c14.784-10.3,30.8-21.524,45.818-32.175L494.219,339.42a1.328,1.328,0,0,1,.773-2.528l67.886,13.537c14.4-10.323,26.895-19.471,35.051-25.813,9.626-7.49,17.212-15.255,22.94-23.478l-92.94-5.549a1.329,1.329,0,0,1,.007-2.654" transform="translate(-11898.576 -17469.457)" fill="#fff"></path></g></g></svg>